<mxfile host="app.diagrams.net" modified="2022-11-18T17:35:01.410Z" agent="5.0 (Windows NT 10.0; Win64; x64) AppleWebKit/537.36 (KHTML, like Gecko) Chrome/107.0.0.0 Safari/537.36" etag="lhDfi-W0ljgVNamg754h" version="20.5.3" type="github">
  <diagram id="0P1R3xqh3D4Vvi9lRd8P" name="Page-1">
    <mxGraphModel dx="782" dy="436" grid="1" gridSize="10" guides="1" tooltips="1" connect="1" arrows="1" fold="1" page="1" pageScale="1" pageWidth="827" pageHeight="1169" math="0" shadow="0">
      <root>
        <mxCell id="0" />
        <mxCell id="1" parent="0" />
        <mxCell id="tayURZoCfWu09ISGkihC-1" value="" style="rounded=0;whiteSpace=wrap;html=1;fillColor=#E6E6E6;strokeColor=none;" vertex="1" parent="1">
          <mxGeometry x="100" y="160" width="1260" height="740" as="geometry" />
        </mxCell>
        <mxCell id="tayURZoCfWu09ISGkihC-2" value="Referrer" style="swimlane;horizontal=0;whiteSpace=wrap;html=1;fontStyle=1;fillColor=#E6E6E6;strokeColor=#000000;" vertex="1" parent="1">
          <mxGeometry x="100" y="160" width="1260" height="200" as="geometry" />
        </mxCell>
        <mxCell id="tayURZoCfWu09ISGkihC-3" value="" style="ellipse;whiteSpace=wrap;html=1;aspect=fixed;fillColor=#d5e8d4;strokeColor=#82b366;" vertex="1" parent="tayURZoCfWu09ISGkihC-2">
          <mxGeometry x="70" y="70" width="50" height="50" as="geometry" />
        </mxCell>
        <mxCell id="tayURZoCfWu09ISGkihC-4" value="" style="endArrow=classic;html=1;rounded=0;exitX=1;exitY=0.5;exitDx=0;exitDy=0;" edge="1" parent="tayURZoCfWu09ISGkihC-2" source="tayURZoCfWu09ISGkihC-3">
          <mxGeometry width="50" height="50" relative="1" as="geometry">
            <mxPoint x="240" y="100" as="sourcePoint" />
            <mxPoint x="150" y="95" as="targetPoint" />
          </mxGeometry>
        </mxCell>
        <mxCell id="tayURZoCfWu09ISGkihC-5" value="Identify clinical need" style="rounded=1;whiteSpace=wrap;html=1;fillColor=#fff2cc;strokeColor=#d6b656;" vertex="1" parent="tayURZoCfWu09ISGkihC-2">
          <mxGeometry x="150" y="65" width="120" height="60" as="geometry" />
        </mxCell>
        <mxCell id="tayURZoCfWu09ISGkihC-6" value="Write referral letter" style="rounded=1;whiteSpace=wrap;html=1;fillColor=#fff2cc;strokeColor=#d6b656;" vertex="1" parent="tayURZoCfWu09ISGkihC-2">
          <mxGeometry x="320" y="65" width="120" height="60" as="geometry" />
        </mxCell>
        <mxCell id="tayURZoCfWu09ISGkihC-7" value="" style="endArrow=classic;html=1;rounded=0;exitX=1;exitY=0.5;exitDx=0;exitDy=0;" edge="1" parent="tayURZoCfWu09ISGkihC-2" source="tayURZoCfWu09ISGkihC-5" target="tayURZoCfWu09ISGkihC-6">
          <mxGeometry width="50" height="50" relative="1" as="geometry">
            <mxPoint x="410" y="60" as="sourcePoint" />
            <mxPoint x="460" y="10" as="targetPoint" />
          </mxGeometry>
        </mxCell>
        <mxCell id="tayURZoCfWu09ISGkihC-8" value="Make referral from patient record system" style="rounded=1;whiteSpace=wrap;html=1;fillColor=#fff2cc;strokeColor=#d6b656;" vertex="1" parent="tayURZoCfWu09ISGkihC-2">
          <mxGeometry x="490" y="65" width="120" height="60" as="geometry" />
        </mxCell>
        <mxCell id="tayURZoCfWu09ISGkihC-9" value="" style="endArrow=classic;html=1;rounded=0;exitX=1;exitY=0.5;exitDx=0;exitDy=0;entryX=0;entryY=0.5;entryDx=0;entryDy=0;" edge="1" parent="tayURZoCfWu09ISGkihC-2" source="tayURZoCfWu09ISGkihC-6" target="tayURZoCfWu09ISGkihC-8">
          <mxGeometry width="50" height="50" relative="1" as="geometry">
            <mxPoint x="470" y="160" as="sourcePoint" />
            <mxPoint x="520" y="110" as="targetPoint" />
          </mxGeometry>
        </mxCell>
        <mxCell id="tayURZoCfWu09ISGkihC-10" value="Update referral information" style="rounded=1;whiteSpace=wrap;html=1;fillColor=#fff2cc;strokeColor=#d6b656;" vertex="1" parent="tayURZoCfWu09ISGkihC-2">
          <mxGeometry x="720" y="70" width="120" height="60" as="geometry" />
        </mxCell>
        <mxCell id="tayURZoCfWu09ISGkihC-11" value="&lt;i&gt;&lt;b&gt;Start and end points&lt;/b&gt; are denoted by coloured circles&lt;/i&gt;" style="text;html=1;strokeColor=none;fillColor=none;align=center;verticalAlign=middle;whiteSpace=wrap;rounded=0;fontColor=#0066CC;" vertex="1" parent="tayURZoCfWu09ISGkihC-2">
          <mxGeometry x="70" y="150" width="140" height="20" as="geometry" />
        </mxCell>
        <mxCell id="tayURZoCfWu09ISGkihC-12" value="&lt;i style=&quot;&quot;&gt;&lt;b&gt;Activities&lt;/b&gt; are depicted with curved rectangle&lt;b&gt;s&lt;/b&gt;&lt;/i&gt;" style="text;html=1;strokeColor=none;fillColor=none;align=center;verticalAlign=middle;whiteSpace=wrap;rounded=0;fontColor=#0066CC;" vertex="1" parent="tayURZoCfWu09ISGkihC-2">
          <mxGeometry x="850" y="85" width="110" height="20" as="geometry" />
        </mxCell>
        <mxCell id="tayURZoCfWu09ISGkihC-13" value="Referral Management System" style="swimlane;horizontal=0;whiteSpace=wrap;html=1;fontStyle=1;fillColor=#E6E6E6;strokeColor=#000000;" vertex="1" parent="1">
          <mxGeometry x="120" y="410" width="1240" height="200" as="geometry" />
        </mxCell>
        <mxCell id="tayURZoCfWu09ISGkihC-14" value="Match patient demographics" style="rhombus;whiteSpace=wrap;html=1;fillColor=#ffe6cc;strokeColor=#d79b00;" vertex="1" parent="tayURZoCfWu09ISGkihC-13">
          <mxGeometry x="490" y="20" width="80" height="80" as="geometry" />
        </mxCell>
        <mxCell id="tayURZoCfWu09ISGkihC-15" value="Create patient record" style="rounded=1;whiteSpace=wrap;html=1;fillColor=#fff2cc;strokeColor=#d6b656;" vertex="1" parent="tayURZoCfWu09ISGkihC-13">
          <mxGeometry x="294" y="30" width="120" height="60" as="geometry" />
        </mxCell>
        <mxCell id="tayURZoCfWu09ISGkihC-16" value="" style="endArrow=classic;html=1;rounded=0;entryX=1;entryY=0.5;entryDx=0;entryDy=0;exitX=0;exitY=0.5;exitDx=0;exitDy=0;" edge="1" parent="tayURZoCfWu09ISGkihC-13" source="tayURZoCfWu09ISGkihC-14" target="tayURZoCfWu09ISGkihC-15">
          <mxGeometry width="50" height="50" relative="1" as="geometry">
            <mxPoint x="650" y="30" as="sourcePoint" />
            <mxPoint x="700" y="-20" as="targetPoint" />
          </mxGeometry>
        </mxCell>
        <mxCell id="tayURZoCfWu09ISGkihC-17" value="Add referral to existing patient record" style="rounded=1;whiteSpace=wrap;html=1;fillColor=#fff2cc;strokeColor=#d6b656;" vertex="1" parent="tayURZoCfWu09ISGkihC-13">
          <mxGeometry x="470" y="130" width="120" height="60" as="geometry" />
        </mxCell>
        <mxCell id="tayURZoCfWu09ISGkihC-18" value="" style="endArrow=classic;html=1;rounded=0;exitX=0.5;exitY=1;exitDx=0;exitDy=0;" edge="1" parent="tayURZoCfWu09ISGkihC-13" source="tayURZoCfWu09ISGkihC-14">
          <mxGeometry width="50" height="50" relative="1" as="geometry">
            <mxPoint x="630" y="110" as="sourcePoint" />
            <mxPoint x="530" y="130" as="targetPoint" />
          </mxGeometry>
        </mxCell>
        <mxCell id="tayURZoCfWu09ISGkihC-19" value="Failure" style="text;html=1;strokeColor=none;fillColor=none;align=center;verticalAlign=middle;whiteSpace=wrap;rounded=0;" vertex="1" parent="tayURZoCfWu09ISGkihC-13">
          <mxGeometry x="430" y="30" width="60" height="30" as="geometry" />
        </mxCell>
        <mxCell id="tayURZoCfWu09ISGkihC-20" value="Success" style="text;html=1;strokeColor=none;fillColor=none;align=center;verticalAlign=middle;whiteSpace=wrap;rounded=0;" vertex="1" parent="tayURZoCfWu09ISGkihC-13">
          <mxGeometry x="540" y="90" width="60" height="30" as="geometry" />
        </mxCell>
        <mxCell id="tayURZoCfWu09ISGkihC-21" value="&lt;i style=&quot;&quot;&gt;&lt;b&gt;Decision points &lt;/b&gt;are indicated with triangles&lt;/i&gt;" style="text;html=1;strokeColor=none;fillColor=none;align=center;verticalAlign=middle;whiteSpace=wrap;rounded=0;fontColor=#0066CC;" vertex="1" parent="tayURZoCfWu09ISGkihC-13">
          <mxGeometry x="580" y="50" width="110" height="20" as="geometry" />
        </mxCell>
        <mxCell id="tayURZoCfWu09ISGkihC-22" value="Consultant" style="swimlane;horizontal=0;whiteSpace=wrap;html=1;fontStyle=1;fillColor=#E6E6E6;strokeColor=#000000;" vertex="1" parent="1">
          <mxGeometry x="120" y="610" width="1240" height="290" as="geometry" />
        </mxCell>
        <mxCell id="tayURZoCfWu09ISGkihC-23" value="" style="endArrow=classic;html=1;rounded=0;exitX=0.5;exitY=1;exitDx=0;exitDy=0;" edge="1" parent="tayURZoCfWu09ISGkihC-22" source="tayURZoCfWu09ISGkihC-15">
          <mxGeometry width="50" height="50" relative="1" as="geometry">
            <mxPoint x="460" y="80" as="sourcePoint" />
            <mxPoint x="354" y="70" as="targetPoint" />
          </mxGeometry>
        </mxCell>
        <mxCell id="tayURZoCfWu09ISGkihC-24" value="Triage referral" style="rounded=1;whiteSpace=wrap;html=1;fillColor=#fff2cc;strokeColor=#d6b656;" vertex="1" parent="tayURZoCfWu09ISGkihC-22">
          <mxGeometry x="294" y="70" width="120" height="60" as="geometry" />
        </mxCell>
        <mxCell id="tayURZoCfWu09ISGkihC-25" value="Set outcome" style="rhombus;whiteSpace=wrap;html=1;fillColor=#ffe6cc;strokeColor=#d79b00;" vertex="1" parent="tayURZoCfWu09ISGkihC-22">
          <mxGeometry x="490" y="60" width="80" height="80" as="geometry" />
        </mxCell>
        <mxCell id="tayURZoCfWu09ISGkihC-26" value="" style="endArrow=classic;html=1;rounded=0;exitX=1;exitY=0.5;exitDx=0;exitDy=0;entryX=0;entryY=0.5;entryDx=0;entryDy=0;" edge="1" parent="tayURZoCfWu09ISGkihC-22" source="tayURZoCfWu09ISGkihC-24" target="tayURZoCfWu09ISGkihC-25">
          <mxGeometry width="50" height="50" relative="1" as="geometry">
            <mxPoint x="550" y="80" as="sourcePoint" />
            <mxPoint x="600" y="30" as="targetPoint" />
          </mxGeometry>
        </mxCell>
        <mxCell id="tayURZoCfWu09ISGkihC-27" value="Inform referrer of rejection" style="rounded=1;whiteSpace=wrap;html=1;fillColor=#fff2cc;strokeColor=#d6b656;" vertex="1" parent="tayURZoCfWu09ISGkihC-22">
          <mxGeometry x="700" y="20" width="120" height="60" as="geometry" />
        </mxCell>
        <mxCell id="tayURZoCfWu09ISGkihC-28" value="" style="endArrow=classic;html=1;rounded=0;exitX=1;exitY=0.5;exitDx=0;exitDy=0;entryX=0;entryY=0.5;entryDx=0;entryDy=0;" edge="1" parent="tayURZoCfWu09ISGkihC-22" source="tayURZoCfWu09ISGkihC-25" target="tayURZoCfWu09ISGkihC-27">
          <mxGeometry width="50" height="50" relative="1" as="geometry">
            <mxPoint x="570" y="90" as="sourcePoint" />
            <mxPoint x="620" y="40" as="targetPoint" />
            <Array as="points">
              <mxPoint x="600" y="100" />
              <mxPoint x="600" y="50" />
            </Array>
          </mxGeometry>
        </mxCell>
        <mxCell id="tayURZoCfWu09ISGkihC-29" value="" style="endArrow=classic;html=1;rounded=0;entryX=0;entryY=0.5;entryDx=0;entryDy=0;" edge="1" parent="tayURZoCfWu09ISGkihC-22">
          <mxGeometry width="50" height="50" relative="1" as="geometry">
            <mxPoint x="600" y="100" as="sourcePoint" />
            <mxPoint x="650" y="150" as="targetPoint" />
            <Array as="points">
              <mxPoint x="600" y="150" />
            </Array>
          </mxGeometry>
        </mxCell>
        <mxCell id="tayURZoCfWu09ISGkihC-30" value="" style="edgeStyle=orthogonalEdgeStyle;rounded=0;orthogonalLoop=1;jettySize=auto;html=1;" edge="1" parent="tayURZoCfWu09ISGkihC-22" source="tayURZoCfWu09ISGkihC-31" target="tayURZoCfWu09ISGkihC-32">
          <mxGeometry relative="1" as="geometry" />
        </mxCell>
        <mxCell id="tayURZoCfWu09ISGkihC-31" value="Referral type" style="rhombus;whiteSpace=wrap;html=1;fillColor=#ffe6cc;strokeColor=#d79b00;" vertex="1" parent="tayURZoCfWu09ISGkihC-22">
          <mxGeometry x="650" y="110" width="80" height="80" as="geometry" />
        </mxCell>
        <mxCell id="tayURZoCfWu09ISGkihC-32" value="Provide advice to referrer" style="rounded=1;whiteSpace=wrap;html=1;fillColor=#fff2cc;strokeColor=#d6b656;" vertex="1" parent="tayURZoCfWu09ISGkihC-22">
          <mxGeometry x="800" y="120" width="120" height="60" as="geometry" />
        </mxCell>
        <mxCell id="tayURZoCfWu09ISGkihC-33" value="Book appointment" style="rounded=1;whiteSpace=wrap;html=1;fillColor=#fff2cc;strokeColor=#d6b656;" vertex="1" parent="tayURZoCfWu09ISGkihC-22">
          <mxGeometry x="630" y="220" width="120" height="60" as="geometry" />
        </mxCell>
        <mxCell id="tayURZoCfWu09ISGkihC-34" value="" style="endArrow=classic;html=1;rounded=0;exitX=0.5;exitY=1;exitDx=0;exitDy=0;entryX=0.5;entryY=0;entryDx=0;entryDy=0;" edge="1" parent="tayURZoCfWu09ISGkihC-22" source="tayURZoCfWu09ISGkihC-31" target="tayURZoCfWu09ISGkihC-33">
          <mxGeometry width="50" height="50" relative="1" as="geometry">
            <mxPoint x="720" y="210" as="sourcePoint" />
            <mxPoint x="770" y="160" as="targetPoint" />
          </mxGeometry>
        </mxCell>
        <mxCell id="tayURZoCfWu09ISGkihC-35" value="Send patient invitation letter" style="rounded=1;whiteSpace=wrap;html=1;fillColor=#fff2cc;strokeColor=#d6b656;" vertex="1" parent="tayURZoCfWu09ISGkihC-22">
          <mxGeometry x="800" y="220" width="120" height="60" as="geometry" />
        </mxCell>
        <mxCell id="tayURZoCfWu09ISGkihC-36" value="" style="ellipse;whiteSpace=wrap;html=1;aspect=fixed;fillColor=#f8cecc;strokeColor=#b85450;" vertex="1" parent="tayURZoCfWu09ISGkihC-22">
          <mxGeometry x="1140" y="225" width="50" height="50" as="geometry" />
        </mxCell>
        <mxCell id="tayURZoCfWu09ISGkihC-37" value="" style="endArrow=classic;html=1;rounded=0;exitX=1;exitY=0.5;exitDx=0;exitDy=0;entryX=0;entryY=0.5;entryDx=0;entryDy=0;" edge="1" parent="tayURZoCfWu09ISGkihC-22" source="tayURZoCfWu09ISGkihC-33" target="tayURZoCfWu09ISGkihC-35">
          <mxGeometry width="50" height="50" relative="1" as="geometry">
            <mxPoint x="760" y="240" as="sourcePoint" />
            <mxPoint x="810" y="190" as="targetPoint" />
          </mxGeometry>
        </mxCell>
        <mxCell id="tayURZoCfWu09ISGkihC-38" value="" style="endArrow=classic;html=1;rounded=0;exitX=1;exitY=0.5;exitDx=0;exitDy=0;entryX=0;entryY=0.5;entryDx=0;entryDy=0;" edge="1" parent="tayURZoCfWu09ISGkihC-22">
          <mxGeometry width="50" height="50" relative="1" as="geometry">
            <mxPoint x="920" y="249" as="sourcePoint" />
            <mxPoint x="970" y="249" as="targetPoint" />
          </mxGeometry>
        </mxCell>
        <mxCell id="tayURZoCfWu09ISGkihC-39" value="" style="ellipse;whiteSpace=wrap;html=1;aspect=fixed;fillColor=#f8cecc;strokeColor=#b85450;" vertex="1" parent="tayURZoCfWu09ISGkihC-22">
          <mxGeometry x="970" y="125" width="50" height="50" as="geometry" />
        </mxCell>
        <mxCell id="tayURZoCfWu09ISGkihC-40" value="" style="endArrow=classic;html=1;rounded=0;exitX=1;exitY=0.5;exitDx=0;exitDy=0;entryX=0;entryY=0.5;entryDx=0;entryDy=0;" edge="1" parent="tayURZoCfWu09ISGkihC-22">
          <mxGeometry width="50" height="50" relative="1" as="geometry">
            <mxPoint x="920" y="149" as="sourcePoint" />
            <mxPoint x="970" y="149" as="targetPoint" />
          </mxGeometry>
        </mxCell>
        <mxCell id="tayURZoCfWu09ISGkihC-41" value="Reject" style="text;html=1;strokeColor=none;fillColor=none;align=center;verticalAlign=middle;whiteSpace=wrap;rounded=0;" vertex="1" parent="tayURZoCfWu09ISGkihC-22">
          <mxGeometry x="620" y="20" width="60" height="30" as="geometry" />
        </mxCell>
        <mxCell id="tayURZoCfWu09ISGkihC-42" value="Accept" style="text;html=1;strokeColor=none;fillColor=none;align=center;verticalAlign=middle;whiteSpace=wrap;rounded=0;" vertex="1" parent="tayURZoCfWu09ISGkihC-22">
          <mxGeometry x="600" y="120" width="60" height="30" as="geometry" />
        </mxCell>
        <mxCell id="tayURZoCfWu09ISGkihC-43" value="Information referrer of acceptance" style="rounded=1;whiteSpace=wrap;html=1;fillColor=#fff2cc;strokeColor=#d6b656;" vertex="1" parent="tayURZoCfWu09ISGkihC-22">
          <mxGeometry x="970" y="220" width="120" height="60" as="geometry" />
        </mxCell>
        <mxCell id="tayURZoCfWu09ISGkihC-44" value="" style="endArrow=classic;html=1;rounded=0;exitX=1;exitY=0.5;exitDx=0;exitDy=0;entryX=0;entryY=0.5;entryDx=0;entryDy=0;" edge="1" parent="tayURZoCfWu09ISGkihC-22" source="tayURZoCfWu09ISGkihC-43" target="tayURZoCfWu09ISGkihC-36">
          <mxGeometry width="50" height="50" relative="1" as="geometry">
            <mxPoint x="1180" y="200" as="sourcePoint" />
            <mxPoint x="1230" y="150" as="targetPoint" />
          </mxGeometry>
        </mxCell>
        <mxCell id="tayURZoCfWu09ISGkihC-45" value="Advice" style="text;html=1;strokeColor=none;fillColor=none;align=center;verticalAlign=middle;whiteSpace=wrap;rounded=0;" vertex="1" parent="tayURZoCfWu09ISGkihC-22">
          <mxGeometry x="730" y="120" width="60" height="30" as="geometry" />
        </mxCell>
        <mxCell id="tayURZoCfWu09ISGkihC-46" value="&lt;i style=&quot;&quot;&gt;&lt;b&gt;Messages between pools &lt;/b&gt;have dashed lines&lt;/i&gt;" style="text;html=1;strokeColor=none;fillColor=none;align=center;verticalAlign=middle;whiteSpace=wrap;rounded=0;fontColor=#0066CC;" vertex="1" parent="tayURZoCfWu09ISGkihC-22">
          <mxGeometry x="110" y="120" width="110" height="20" as="geometry" />
        </mxCell>
        <mxCell id="tayURZoCfWu09ISGkihC-47" value="&lt;span&gt;Referred to Service&lt;/span&gt;" style="rounded=0;whiteSpace=wrap;html=1;rotation=-90;fontStyle=1;fillColor=#E6E6E6;strokeColor=#000000;" vertex="1" parent="1">
          <mxGeometry x="-136" y="645" width="490" height="20" as="geometry" />
        </mxCell>
        <mxCell id="tayURZoCfWu09ISGkihC-48" value="" style="endArrow=classic;html=1;rounded=0;exitX=0.5;exitY=1;exitDx=0;exitDy=0;entryX=0.5;entryY=0;entryDx=0;entryDy=0;dashed=1;" edge="1" parent="1" source="tayURZoCfWu09ISGkihC-8" target="tayURZoCfWu09ISGkihC-14">
          <mxGeometry width="50" height="50" relative="1" as="geometry">
            <mxPoint x="760" y="490" as="sourcePoint" />
            <mxPoint x="690" y="410" as="targetPoint" />
          </mxGeometry>
        </mxCell>
        <mxCell id="tayURZoCfWu09ISGkihC-49" value="" style="endArrow=classic;html=1;rounded=0;exitX=0.5;exitY=1;exitDx=0;exitDy=0;entryX=0.5;entryY=0;entryDx=0;entryDy=0;" edge="1" parent="1" source="tayURZoCfWu09ISGkihC-17" target="tayURZoCfWu09ISGkihC-25">
          <mxGeometry width="50" height="50" relative="1" as="geometry">
            <mxPoint x="760" y="690" as="sourcePoint" />
            <mxPoint x="810" y="640" as="targetPoint" />
          </mxGeometry>
        </mxCell>
        <mxCell id="tayURZoCfWu09ISGkihC-50" value="" style="endArrow=classic;html=1;rounded=0;exitX=0.5;exitY=0;exitDx=0;exitDy=0;entryX=0;entryY=0.5;entryDx=0;entryDy=0;dashed=1;" edge="1" parent="1" source="tayURZoCfWu09ISGkihC-10" target="tayURZoCfWu09ISGkihC-24">
          <mxGeometry width="50" height="50" relative="1" as="geometry">
            <mxPoint x="760" y="255" as="sourcePoint" />
            <mxPoint x="330" y="470" as="targetPoint" />
            <Array as="points">
              <mxPoint x="880" y="190" />
              <mxPoint x="160" y="190" />
              <mxPoint x="160" y="710" />
              <mxPoint x="320" y="710" />
            </Array>
          </mxGeometry>
        </mxCell>
        <mxCell id="tayURZoCfWu09ISGkihC-51" value="" style="endArrow=classic;html=1;rounded=0;exitX=0.5;exitY=0;exitDx=0;exitDy=0;entryX=0.5;entryY=1;entryDx=0;entryDy=0;dashed=1;" edge="1" parent="1" source="tayURZoCfWu09ISGkihC-27" target="tayURZoCfWu09ISGkihC-10">
          <mxGeometry width="50" height="50" relative="1" as="geometry">
            <mxPoint x="820" y="480" as="sourcePoint" />
            <mxPoint x="870" y="430" as="targetPoint" />
          </mxGeometry>
        </mxCell>
        <mxCell id="tayURZoCfWu09ISGkihC-52" value="Appointment" style="text;html=1;strokeColor=none;fillColor=none;align=center;verticalAlign=middle;whiteSpace=wrap;rounded=0;" vertex="1" parent="1">
          <mxGeometry x="820" y="790" width="60" height="30" as="geometry" />
        </mxCell>
      </root>
    </mxGraphModel>
  </diagram>
</mxfile>
